<svg width="61" height="60" viewBox="0 0 61 60" fill="none" xmlns="http://www.w3.org/2000/svg">
<path d="M38.8107 0.972949C35.3293 0.941435 32.1277 3.45709 30.8975 6.85399C29.6574 3.42749 26.4099 0.901244 22.8929 0.976777C20.9663 1.01824 18.9594 1.83978 17.1552 3.724C15.6928 5.25097 14.8776 7.26865 14.0433 9.30597C12.1307 12.1754 9.57223 14.3164 5.86316 15.1589C6.75568 15.9722 7.72853 16.3953 8.75187 16.5705C6.94235 17.5692 4.46993 18.1212 0.938477 17.9459C3.55586 21.3049 7.65063 22.4474 11.9395 22.3517C19.6809 22.0532 23.5994 18.0997 25.8931 14.0744L27.961 15.2546C25.3616 19.8164 20.4192 24.3788 11.7324 24.7081V24.8C11.7324 25.5741 11.9007 26.5097 12.2024 27.5669L12.1705 27.5072L15.9318 42.1638L16.5215 37.2356C18.7012 41.2495 21.3246 45.5023 23.7295 49.2251L23.9366 43.3398C24.68 48.2537 26.5734 52.7081 28.9171 56.9879C30.1076 58.7112 30.8616 59.7668 30.8616 59.7668C30.8616 59.7668 31.7481 58.5301 33.1407 56.5054C33.1496 56.4926 33.1601 56.4782 33.1687 56.4654C35.8157 52.2782 38.021 47.8844 39.0897 42.9531L38.9542 47.7297C40.1453 45.8585 41.3669 43.8909 42.5442 41.9046V45.5367L47.7123 32.2516C48.9716 29.4977 49.8176 27.0764 49.9635 25.3183C41.5848 24.3082 35.7843 19.9774 33.093 15.2548L35.1611 14.0746C37.6732 18.483 43.6452 22.8692 52.7963 23.1412C54.7197 23.103 56.6093 22.679 58.6096 21.6978C56.7196 21.7129 55.106 21.56 53.6969 21.2593C56.6728 20.604 59.253 19.1165 60.853 16.4148C47.7788 19.1273 49.334 8.62938 44.6361 3.72387C42.8039 1.81082 40.7638 0.990429 38.8109 0.972822L38.8107 0.972949Z" fill="black"/>
</svg>
